<svg width="83" height="34" viewBox="0 0 83 34" fill="none" xmlns="http://www.w3.org/2000/svg">
<path d="M8.76 15.26C13.64 15.26 16.78 12.88 17.62 8.94C18.58 4.38 15.96 0.76 10.2 0.76C5.32 0.76 2.2 3.14 1.34 7.06C0.36 11.64 3.02 15.26 8.76 15.26ZM9.02 12.26C5.92 12.26 4.52 10.24 5.08 7.52C5.58 5.18 7.32 3.76 9.96 3.76C13.04 3.76 14.44 5.76 13.88 8.46C13.38 10.8 11.64 12.26 9.02 12.26ZM29.325 9.8L24.605 0.999999H21.045L18.085 15H21.525L23.465 5.86L28.445 15H31.665L34.645 0.999999H31.185L29.325 9.8ZM40.8503 0.999999H37.0903L34.1303 15H44.3903L45.0503 11.94H38.5303L40.8503 0.999999ZM49.6187 15L52.5787 0.999999H48.8387L45.8787 15H49.6187ZM63.3203 9.8L58.6003 0.999999H55.0403L52.0803 15H55.5203L57.4603 5.86L62.4403 15H65.6603L68.6403 0.999999H65.1803L63.3203 9.8ZM82.0656 0.999999H71.0856L68.1256 15H79.0856L79.6856 12.2H72.3656L73.0056 9.16H79.7256L80.2456 6.76H73.5056L74.1256 3.8H81.4656L82.0656 0.999999ZM13.62 27.52C12.96 29.62 11.2 30.46 9.1 30.46C5.7 30.46 4.46 28.34 5.06 25.54C5.58 23.04 7.46 21.68 10.08 21.68C11.98 21.68 13.68 22.42 14.1 23.84H17.9C17.58 20.76 14.58 18.76 10.18 18.76C5.34 18.76 2.18 21.1 1.34 25.04C0.34 29.74 3.14 33.26 8.84 33.26C13.46 33.26 16.94 31.26 17.62 26.14L17.7 25.16H9L8.5 27.52H13.62ZM30.1897 19L25.4697 24.64L23.2697 19H19.3497L23.1097 27.6L21.9697 33H25.6897L26.8097 27.74L34.3897 19H30.1897ZM42.672 28.72L40.572 19H35.912L32.052 33H35.472L38.112 23.38L40.232 33H43.312L49.092 23.32L47.872 33H51.432L53.272 19H48.412L42.672 28.72Z" fill="white"/>
</svg>
